rotated_Sprint_05400001_forces_filt10Hz.mot
version=1
nRows=38
nColumns=19
inDegrees=yes
endheader
time	R_ground_force_vx	R_ground_force_vy	R_ground_force_vz	R_ground_force_px	R_ground_force_py	R_ground_force_pz	R_ground_torque_x	R_ground_torque_y	R_ground_torque_z	L_ground_force_vx	L_ground_force_vy	L_ground_force_vz	L_ground_force_px	L_ground_force_py	L_ground_force_pz	L_ground_torque_x	L_ground_torque_y	L_ground_torque_z	
0.904500	  0.000000	  0.000000	  0.000000	  0.549488	  0.000000	 -0.619230	  0.000000	  0.000000	  0.000000	-92.669953	2826.103108	 36.113794	  0.802880	  0.000000	 -0.344468	  0.000000	 -0.035156	  0.000000
0.905000	  0.000000	  0.000000	  0.000000	  0.550140	  0.000000	 -0.617807	  0.000000	  0.000000	  0.000000	-86.057464	2822.978143	 36.319698	  0.800634	  0.000000	 -0.344450	  0.000000	 -0.081593	  0.000000
0.905500	  0.000000	  0.000000	  0.000000	  0.550771	  0.000000	 -0.616324	  0.000000	  0.000000	  0.000000	-79.418793	2819.599719	 36.491564	  0.798387	  0.000000	 -0.344431	  0.000000	 -0.128790	  0.000000
0.906000	  0.000000	  0.000000	  0.000000	  0.551403	  0.000000	 -0.614841	  0.000000	  0.000000	  0.000000	-72.755960	2815.968157	 36.630173	  0.796140	  0.000000	 -0.344412	  0.000000	 -0.176741	  0.000000
0.906500	  0.000000	  0.000000	  0.000000	  0.552034	  0.000000	 -0.613358	  0.000000	  0.000000	  0.000000	-66.070983	2812.083777	 36.736243	  0.793892	  0.000000	 -0.344391	  0.000000	 -0.225450	  0.000000
0.907000	  0.000000	  0.000000	  0.000000	  0.552666	  0.000000	 -0.611875	  0.000000	  0.000000	  0.000000	-59.365869	2807.946915	 36.810416	  0.791645	  0.000000	 -0.344369	  0.000000	 -0.274930	  0.000000
0.907500	  0.000000	  0.000000	  0.000000	  0.553297	  0.000000	 -0.610393	  0.000000	  0.000000	  0.000000	-52.642621	2803.557936	 36.853237	  0.789397	  0.000000	 -0.344346	  0.000000	 -0.325198	  0.000000
0.908000	  0.000000	  0.000000	  0.000000	  0.553929	  0.000000	 -0.608910	  0.000000	  0.000000	  0.000000	-45.903232	2798.917244	 36.865145	  0.787150	  0.000000	 -0.344323	  0.000000	 -0.376269	  0.000000
0.908500	  0.000000	  0.000000	  0.000000	  0.554560	  0.000000	 -0.607427	  0.000000	  0.000000	  0.000000	-39.149688	2794.025289	 36.846467	  0.784902	  0.000000	 -0.344298	  0.000000	 -0.428161	  0.000000
0.909000	  0.000000	  0.000000	  0.000000	  0.555192	  0.000000	 -0.605944	  0.000000	  0.000000	  0.000000	-32.383968	2788.882568	 36.797410	  0.782655	  0.000000	 -0.344272	  0.000000	 -0.480888	  0.000000
0.909500	  0.000000	  0.000000	  0.000000	  0.555824	  0.000000	 -0.604461	  0.000000	  0.000000	  0.000000	-25.608050	2783.489628	 36.718071	  0.780407	  0.000000	 -0.344245	  0.000000	 -0.534467	  0.000000
0.910000	  0.000000	  0.000000	  0.000000	  0.556455	  0.000000	 -0.602978	  0.000000	  0.000000	  0.000000	-18.823910	2777.847057	 36.608443	  0.778160	  0.000000	 -0.344218	  0.000000	 -0.588917	  0.000000
0.910500	  0.000000	  0.000000	  0.000000	  0.557154	  0.000000	 -0.601334	  0.000000	  0.000000	  0.000000	-12.033539	2771.955478	 36.468428	  0.775914	  0.000000	 -0.344189	  0.000000	 -0.644263	  0.000000
0.911000	  0.000000	  0.000000	  0.000000	  0.557853	  0.000000	 -0.599690	  0.000000	  0.000000	  0.000000	 -5.238944	2765.815543	 36.297856	  0.773668	  0.000000	 -0.344159	  0.000000	 -0.700539	  0.000000
0.911500	  0.000000	  0.000000	  0.000000	  0.558553	  0.000000	 -0.598046	  0.000000	  0.000000	  0.000000	  1.557841	2759.427913	 36.096497	  0.771423	  0.000000	 -0.344128	  0.000000	 -0.757783	  0.000000
0.912000	  0.000000	  0.000000	  0.000000	  0.559252	  0.000000	 -0.596402	  0.000000	  0.000000	  0.000000	  8.354752	2752.793257	 35.864076	  0.769178	  0.000000	 -0.344096	  0.000000	 -0.816036	  0.000000
0.912500	  0.000000	  0.000000	  0.000000	  0.559951	  0.000000	 -0.594758	  0.000000	  0.000000	  0.000000	 15.149686	2745.912234	 35.600279	  0.766935	  0.000000	 -0.344063	  0.000000	 -0.875337	  0.000000
0.913000	  0.000000	  0.000000	  0.000000	  0.560650	  0.000000	 -0.593114	  0.000000	  0.000000	  0.000000	 21.940502	2738.785492	 35.304761	  0.764692	  0.000000	 -0.344030	  0.000000	 -0.935717	  0.000000
0.913500	  0.000000	  0.000000	  0.000000	  0.561349	  0.000000	 -0.591470	  0.000000	  0.000000	  0.000000	 28.725017	2731.413665	 34.977147	  0.762451	  0.000000	 -0.343995	  0.000000	 -0.997181	  0.000000
0.914000	  0.000000	  0.000000	  0.000000	  0.562049	  0.000000	 -0.589826	  0.000000	  0.000000	  0.000000	 35.501008	2723.797383	 34.617033	  0.760210	  0.000000	 -0.343959	  0.000000	 -1.059706	  0.000000
0.914500	  0.000000	  0.000000	  0.000000	  0.562748	  0.000000	 -0.588182	  0.000000	  0.000000	  0.000000	 42.266208	2715.937274	 34.223987	  0.757971	  0.000000	 -0.343923	  0.000000	 -1.123222	  0.000000
0.915000	  0.000000	  0.000000	  0.000000	  0.563447	  0.000000	 -0.586538	  0.000000	  0.000000	  0.000000	 49.018306	2707.833980	 33.797548	  0.755733	  0.000000	 -0.343886	  0.000000	 -1.187608	  0.000000
0.915500	  0.000000	  0.000000	  0.000000	  0.564230	  0.000000	 -0.584785	  0.000000	  0.000000	  0.000000	 55.754951	2699.488160	 33.337223	  0.753496	  0.000000	 -0.343848	  0.000000	 -1.252679	  0.000000
0.916000	  0.000000	  0.000000	  0.000000	  0.565013	  0.000000	 -0.583032	  0.000000	  0.000000	  0.000000	 62.473750	2690.900494	 32.842492	  0.751260	  0.000000	 -0.343809	  0.000000	 -1.318183	  0.000000
0.916500	  0.000000	  0.000000	  0.000000	  0.565796	  0.000000	 -0.581279	  0.000000	  0.000000	  0.000000	 69.172280	2682.071685	 32.312809	  0.749025	  0.000000	 -0.343769	  0.000000	 -1.383793	  0.000000
0.917000	  0.000000	  0.000000	  0.000000	  0.566579	  0.000000	 -0.579526	  0.000000	  0.000000	  0.000000	 75.848096	2673.002460	 31.747617	  0.746792	  0.000000	 -0.343728	  0.000000	 -1.449112	  0.000000
0.917500	  0.000000	  0.000000	  0.000000	  0.567362	  0.000000	 -0.577773	  0.000000	  0.000000	  0.000000	 82.498743	2663.693570	 31.146348	  0.744560	  0.000000	 -0.343687	  0.000000	 -1.513667	  0.000000
0.918000	  0.000000	  0.000000	  0.000000	  0.568145	  0.000000	 -0.576020	  0.000000	  0.000000	  0.000000	 89.121771	2654.145793	 30.508441	  0.742329	  0.000000	 -0.343645	  0.000000	 -1.576916	  0.000000
0.918500	  0.000000	  0.000000	  0.000000	  0.568928	  0.000000	 -0.574267	  0.000000	  0.000000	  0.000000	 95.714749	2644.359936	 29.833352	  0.740100	  0.000000	 -0.343602	  0.000000	 -1.638249	  0.000000
0.919000	  0.000000	  0.000000	  0.000000	  0.569711	  0.000000	 -0.572514	  0.000000	  0.000000	  0.000000	102.275279	2634.336835	 29.120559	  0.737872	  0.000000	 -0.343559	  0.000000	 -1.696991	  0.000000
0.919500	  0.000000	  0.000000	  0.000000	  0.570494	  0.000000	 -0.570761	  0.000000	  0.000000	  0.000000	108.801008	2624.077354	 28.369569	  0.735646	  0.000000	 -0.343515	  0.000000	 -1.752409	  0.000000
0.920000	  0.000000	  0.000000	  0.000000	  0.571277	  0.000000	 -0.569008	  0.000000	  0.000000	  0.000000	115.289635	2613.582382	 27.579930	  0.733421	  0.000000	 -0.343470	  0.000000	 -1.803712	  0.000000
0.920500	  0.000000	  0.000000	  0.000000	  0.572148	  0.000000	 -0.567154	  0.000000	  0.000000	  0.000000	121.738920	2602.852826	 26.751233	  0.731197	  0.000000	 -0.343425	  0.000000	 -1.850056	  0.000000
0.921000	  0.000000	  0.000000	  0.000000	  0.573020	  0.000000	 -0.565301	  0.000000	  0.000000	  0.000000	128.146683	2591.889610	 25.883125	  0.728976	  0.000000	 -0.343380	  0.000000	 -1.890546	  0.000000
0.921500	  0.000000	  0.000000	  0.000000	  0.573891	  0.000000	 -0.563447	  0.000000	  0.000000	  0.000000	134.510808	2580.693662	 24.975323	  0.726756	  0.000000	 -0.343334	  0.000000	 -1.924243	  0.000000
0.922000	  0.000000	  0.000000	  0.000000	  0.574762	  0.000000	 -0.561594	  0.000000	  0.000000	  0.000000	140.829238	2569.265914	 24.027627	  0.724538	  0.000000	 -0.343288	  0.000000	 -1.950170	  0.000000
0.922500	  0.000000	  0.000000	  0.000000	  0.575633	  0.000000	 -0.559740	  0.000000	  0.000000	  0.000000	147.099976	2557.607297	 23.039940	  0.722322	  0.000000	 -0.343242	  0.000000	 -1.967323	  0.000000
0.923000	  0.000000	  0.000000	  0.000000	  0.576505	  0.000000	 -0.557886	  0.000000	  0.000000	  0.000000	153.321076	2545.718738	 22.012283	  0.720108	  0.000000	 -0.343196	  0.000000	 -1.974676	  0.000000
